<svg width="698" height="120" viewBox="0 0 698 120" fill="none" xmlns="http://www.w3.org/2000/svg">
<path d="M227.445 0.290512C221.5 0.290512 216.616 5.18077 216.616 11.2607C216.616 17.3407 221.503 21.9646 227.445 21.9646C233.387 21.9646 238.274 17.0744 238.274 11.2607C238.274 5.44707 233.518 0.290512 227.445 0.290512Z" fill="#F3BA2F"/>
<path d="M236.294 28.6844H218.727V93.6999H236.294V28.6844Z" fill="#F3BA2F"/>
<path d="M422.511 26.9656C415.511 26.9656 407.72 30.0055 403.755 36.7461V28.6844H386.718V93.6999H404.284V56.3036C404.284 48.7711 408.774 42.826 416.434 42.826C424.885 42.826 428.452 48.5083 428.452 55.7745V93.6999H446.018V52.7345C446.018 38.4649 438.621 26.9656 422.511 26.9656Z" fill="#F3BA2F"/>
<path d="M486.791 26.7027C467.376 26.7027 452.717 41.1072 452.717 61.1904C452.717 81.2737 467.376 95.6816 486.791 95.6816C506.207 95.6816 520.866 81.1457 520.866 61.1904C520.866 41.2352 506.207 26.7027 486.791 26.7027ZM486.791 79.6932C478.205 79.6932 470.283 73.3503 470.283 61.1939C470.283 49.0374 478.205 42.6946 486.791 42.6946C495.378 42.6946 503.3 48.906 503.3 61.1939C503.3 73.4818 495.378 79.6932 486.791 79.6932Z" fill="#F3BA2F"/>
<path d="M602.236 26.8341C593.65 26.8341 586.786 29.7427 581.632 37.6695C578.331 30.6661 571.197 26.8341 562.351 26.8341C555.221 26.8341 546.901 30.2684 543.334 36.6112V28.6844H526.559V93.6999H544.125V55.643C544.125 48.5082 548.615 42.826 556.275 42.826C563.934 42.826 567.764 48.1105 567.764 55.1174V93.7033H585.199V55.6465C585.199 48.6431 589.689 42.8295 597.217 42.8295C605.274 42.8295 608.707 48.114 608.707 55.1208V93.7068H625.744V51.5551C625.744 34.1107 614.255 26.8445 602.236 26.8445V26.8341Z" fill="#F3BA2F"/>
<path d="M678.722 28.6844L662.743 66.7412L645.443 28.6844H625.765L653.365 85.5034L638.046 119.334H656.67L697.477 28.6844H678.722Z" fill="#F3BA2F"/>
<path d="M277.029 79.6897C268.443 79.6897 260.52 73.3469 260.52 61.1904C260.52 49.034 268.446 42.6912 277.029 42.6912C282.355 42.6912 287.056 45.0879 289.859 49.8432L306.427 44.4066C301.097 33.5608 290.423 26.7027 277.029 26.7027C257.613 26.7027 242.954 41.1072 242.954 61.1904C242.954 81.2737 257.613 95.6816 277.029 95.6816C293.164 95.6816 305.345 85.6348 308.998 70.7876H290.755C288.141 76.7051 282.977 79.6932 277.029 79.6932V79.6897Z" fill="#F3BA2F"/>
<path d="M345.986 26.7027C326.571 26.7027 311.912 41.1072 311.912 61.1904C311.912 81.2737 326.571 95.6816 345.986 95.6816C365.402 95.6816 380.061 81.1457 380.061 61.1904C380.061 41.2352 365.402 26.7027 345.986 26.7027ZM345.986 79.6932C337.4 79.6932 329.478 73.3503 329.478 61.1939C329.478 49.0374 337.404 42.6946 345.986 42.6946C354.569 42.6946 362.495 48.906 362.495 61.1939C362.495 73.4818 354.569 79.6932 345.986 79.6932Z" fill="#F3BA2F"/>
<path d="M195.558 36.7599C199.16 31.9838 199.91 27.3979 199.91 21.9128C199.91 16.4277 194.919 0 176.731 0H135V93.6376H180.077C202.53 93.6376 212.008 78.078 212.008 61.6573C212.008 54.1282 208.873 44.3547 195.555 36.7564L195.558 36.7599ZM152.625 14.3699H173.879C178.77 14.3699 182.731 18.3367 182.731 23.227C182.731 28.1207 178.767 32.0841 173.879 32.0841H152.625V14.3664V14.3699ZM177.996 79.2678H152.625V46.4574H177.996C187.052 46.4574 194.39 53.8032 194.39 62.8608C194.39 72.9042 187.864 79.2643 177.996 79.2643V79.2678Z" fill="#F3BA2F"/>
<path d="M68.0823 41.4927C69.8803 37.8502 71.1344 33.2816 71.1344 27.5959C71.1344 19.7957 68.0179 12.7352 62.3575 7.71352C56.7726 2.75848 49.2165 0.139924 40.5062 0.139924L10.4906 0C4.69701 0 0 4.69963 0 10.4964V99.5073H52.5084C72.1156 99.5073 83.5762 83.143 83.5762 68.3823C83.5762 57.1685 77.3542 46.9075 68.0845 41.4927H68.0823ZM40.504 7.81569C54.595 7.81569 63.4629 16.2666 63.4629 27.5959C63.4629 42.8008 52.0112 49.7548 40.4241 49.7548C29.5383 49.7548 20.5727 40.7842 20.5727 26.8807V19.205C20.5727 14.1655 17.5605 9.64135 12.899 8.15106V7.81569H40.5017H40.504Z" fill="#F3BA2F"/>
</svg>
