<svg width="353" height="101" viewBox="0 0 353 101" fill="none" xmlns="http://www.w3.org/2000/svg">
<mask id="mask0_2_78" style="mask-type:luminance" maskUnits="userSpaceOnUse" x="0" y="0" width="353" height="101">
<path d="M353 0H0V100.857H353V0Z" fill="white"/>
</mask>
<g mask="url(#mask0_2_78)">
<path d="M134.41 76.4901V24.2057H145.628V76.4901H134.41Z" fill="#F3BA2F"/>
<path d="M160.721 76.4901V24.2057H172.451L201.998 59.062V24.2057H213.507V76.4901H201.777L172.084 41.4888V76.4901H160.721Z" fill="#F3BA2F"/>
<path d="M241.371 76.4901C239.366 76.4901 237.533 76.006 235.872 75.0377C234.258 74.0695 232.963 72.7867 231.985 71.1889C231.008 69.543 230.519 67.7275 230.519 65.7426V34.953C230.519 32.9682 231.008 31.1769 231.985 29.5794C232.963 27.9334 234.258 26.6263 235.872 25.658C237.533 24.6898 239.366 24.2057 241.371 24.2057H283.16V35.534H244.303C243.521 35.534 242.91 35.7276 242.47 36.1149C242.078 36.5022 241.883 37.1073 241.883 37.9303V62.7654C241.883 63.54 242.078 64.1452 242.47 64.5808C242.91 64.9679 243.521 65.1619 244.303 65.1619H283.16V76.4901H241.371Z" fill="#F3BA2F"/>
<path d="M310.306 76.4901C308.35 76.4901 306.542 76.006 304.88 75.0377C303.218 74.0695 301.898 72.7622 300.921 71.1163C299.943 69.4704 299.456 67.679 299.456 65.7426V34.953C299.456 32.9682 299.943 31.1769 300.921 29.5794C301.898 27.9334 303.218 26.6263 304.88 25.658C306.542 24.6898 308.35 24.2057 310.306 24.2057H341.392C343.347 24.2057 345.13 24.6898 346.744 25.658C348.406 26.6263 349.724 27.9334 350.702 29.5794C351.729 31.1769 352.242 32.9682 352.242 34.953V65.7426C352.242 67.679 351.729 69.4704 350.702 71.1163C349.724 72.7622 348.406 74.0695 346.744 75.0377C345.13 76.006 343.347 76.4901 341.392 76.4901H310.306ZM310.818 65.1619H340.731V35.534H310.818V65.1619Z" fill="#F3BA2F"/>
<path d="M0 16.1371C0 7.22486 7.29434 0 16.2923 0H85.5346C94.5326 0 101.827 7.22486 101.827 16.1371V84.72C101.827 93.6323 94.5326 100.857 85.5346 100.857H16.2923C7.29434 100.857 0 93.6323 0 84.72V16.1371Z" fill="#F3BA2F"/>
<path d="M19.3445 69.5914L29.6086 31.2657H40.7281L30.464 69.5914H19.3445Z" fill="white"/>
<path d="M40.728 69.5914L50.9922 31.2657H62.1117L51.8475 69.5914H40.728Z" fill="white"/>
<path d="M62.1118 69.5914L72.3759 31.2657H83.4954L73.2313 69.5914H62.1118Z" fill="white"/>
</g>
</svg>
